<?xml version="1.0" encoding="UTF-8"?>
<svg id="Layer_1" data-name="Layer 1" xmlns="http://www.w3.org/2000/svg" viewBox="0 0 1766.83 644.06">
  <defs>
    <style>
      .cls-1 {
        opacity: .85;
      }

      .cls-1, .cls-2, .cls-3, .cls-4, .cls-5, .cls-6, .cls-7, .cls-8, .cls-9, .cls-10, .cls-11, .cls-12, .cls-13, .cls-14, .cls-15, .cls-16, .cls-17, .cls-18, .cls-19, .cls-20, .cls-21, .cls-22, .cls-23 {
        fill-rule: evenodd;
        isolation: isolate;
      }

      .cls-1, .cls-2, .cls-3, .cls-4, .cls-5, .cls-7, .cls-8, .cls-9, .cls-10, .cls-11, .cls-13, .cls-14, .cls-15, .cls-16, .cls-17, .cls-18, .cls-19, .cls-20, .cls-21, .cls-22, .cls-23 {
        fill: #2e2f2e;
      }

      .cls-2 {
        opacity: .77;
      }

      .cls-3 {
        opacity: .77;
      }

      .cls-4 {
        opacity: .77;
      }

      .cls-5 {
        opacity: .79;
      }

      .cls-6 {
        opacity: .97;
      }

      .cls-6, .cls-12 {
        fill: #1c9cb2;
      }

      .cls-7 {
        opacity: .93;
      }

      .cls-8 {
        opacity: .77;
      }

      .cls-9 {
        opacity: .84;
      }

      .cls-10 {
        opacity: .76;
      }

      .cls-11 {
        opacity: .85;
      }

      .cls-12 {
        opacity: .97;
      }

      .cls-13 {
        opacity: .75;
      }

      .cls-14 {
        opacity: .85;
      }

      .cls-15 {
        opacity: .78;
      }

      .cls-16 {
        opacity: .93;
      }

      .cls-17 {
        opacity: .84;
      }

      .cls-18 {
        opacity: .81;
      }

      .cls-19 {
        opacity: .77;
      }

      .cls-20 {
        opacity: .84;
      }

      .cls-21 {
        opacity: .73;
      }

      .cls-22 {
        opacity: .93;
      }

      .cls-23 {
        opacity: .83;
      }
    </style>
  </defs>
  <path class="cls-12" d="M1450.4,.07c1.71-.2,3.39,.01,5,.63,81.93,81.1,163.83,162.16,245.69,243.19,65.24,79.27,81.92,168.04,50.01,266.32-14.27,36.48-35.11,68.58-62.52,96.28-13.13,12.29-26.26,24.59-39.39,36.89-7.08,1.45-13.75,.62-20.01-2.5-11.89-12.1-23.98-23.98-36.26-35.63,21.62-21.83,43.09-43.92,64.39-66.27,42.29-59.3,51.46-123.48,27.51-192.55-9.47-22.7-22.39-43.13-38.76-61.27-64.21-63.58-128.6-126.93-193.18-190.05-66.26,66.04-132.72,131.89-199.43,197.55-51.71,68.21-59.22,141.15-22.51,218.81,6.66,10,13.34,20.01,20.01,30.01,20.42,20.42,40.85,40.84,61.27,61.27,.84,1.25,.84,2.5,0,3.75-12.74,11.49-25.03,23.37-36.89,35.63-7.76,2.83-15.27,2.41-22.51-1.25-14.73-14.73-29.52-29.52-44.39-44.39-61.72-70.55-82.13-151.83-61.27-243.82,8.93-33.27,23.52-63.69,43.76-91.27,6.3-6.72,12.14-13.81,17.5-21.26C1290.19,161.12,1370.84,81.09,1450.4,.07Z"/>
  <path class="cls-21" d="M792.72,15.08h27.51v8.75c-8.45-.47-16.78,.15-25.01,1.88-5.1,4.03-6.97,9.24-5.63,15.63,12.61,1.23,25.32,1.65,38.14,1.25v11.25c-20.84-.21-41.68,0-62.52,.63-5.49,.78-10.91,1.82-16.25,3.13-1.67-3.33-1.67-6.67,0-10,9.92-2.49,19.92-4.57,30.01-6.25-1.42-5.18-.8-10.19,1.88-15,3.76-3.97,7.72-7.72,11.88-11.25Z"/>
  <path class="cls-7" d="M67.52,72.59h42.51c-.21,20.43,0,40.85,.63,61.27,4.57,20.37,17.28,28.92,38.14,25.63,9.72-3.47,16.59-9.93,20.63-19.38,1.81-22.44,2.43-44.94,1.88-67.52,7.1-.21,14.18,0,21.26,.63,6.16,2.41,10.12,6.79,11.88,13.13,.42,18.34,.83,36.68,1.25,55.02,7.64,15.18,19.94,21.22,36.89,18.13,8.78-2.94,15.24-8.57,19.38-16.88,1.83-23.25,2.45-46.59,1.88-70.02,7.1-.21,14.18,0,21.26,.63,4.46,.88,8,3.17,10.63,6.88,1.63,18.64,2.46,37.39,2.5,56.27,3.63,15.5,13.42,23.42,29.38,23.76,15.95-.33,25.75-8.24,29.38-23.76,.63-21.25,.83-42.51,.63-63.77,8.45-.47,16.78,.15,25.01,1.88,3.61,2.36,6.32,5.48,8.13,9.38,.83,19.17,.83,38.34,0,57.52-7.25,28.5-25.38,45.38-54.39,50.64-21.6,1.97-40.15-4.49-55.64-19.38-31.18,26.62-62.44,26.62-93.78,0-19.84,19.06-42.97,24.27-69.39,15.63-20.79-8.7-33.92-23.91-39.39-45.64-.63-12.91-.83-25.83-.63-38.76-23.81,1.93-38.6,14.44-44.39,37.51-.63,17.08-.83,34.17-.63,51.26-6.68,.21-13.35,0-20.01-.63-5.43-1.26-9.39-4.39-11.88-9.38-1.14-18.81-.73-37.57,1.25-56.27,7.38-20.71,20.92-35.92,40.64-45.64,8.28-3.39,16.62-6.1,25.01-8.13Z"/>
  <path class="cls-16" d="M451.38,72.59c7.1-.21,14.18,0,21.26,.63,5.59,2.26,9.55,6.22,11.88,11.88,.06,19.26,.89,38.43,2.5,57.52,10.64,17.99,25.43,22.37,44.39,13.13,5.77-3.27,9.73-8.07,11.88-14.38,1.83-22.84,2.45-45.76,1.88-68.77,7.1-.21,14.18,0,21.26,.63,3.83,1.33,6.95,3.62,9.38,6.88,1.63,18.64,2.46,37.39,2.5,56.27,8.71,22.78,24.34,29.24,46.89,19.38,5.44-4.17,9.4-9.38,11.88-15.63,1.79-22.45,2.41-44.95,1.88-67.52,7.1-.21,14.18,0,21.26,.63,4.72,1.8,8.26,4.93,10.63,9.38,.83,20.01,.83,40.01,0,60.02-9.05,31.22-29.89,47.89-62.52,50.01-18.22-.58-33.64-7.24-46.26-20.01-31.34,26.62-62.6,26.62-93.78,0-9.12,8.71-19.75,14.75-31.88,18.13-15.77,1.75-31.61,2.37-47.51,1.88v-32.51c13.34,.21,26.68,0,40.01-.63,13.19-3.59,20.48-12.14,21.88-25.63,.63-20.42,.83-40.84,.63-61.27Z"/>
  <path class="cls-22" d="M768.96,72.59c15.43-.21,30.85,0,46.26,.63,4.23,1.71,7.77,4.42,10.63,8.13,1.64,26.56,2.47,53.24,2.5,80.02,19.7-1.24,39.5-1.66,59.39-1.25V72.59c22.14-.5,44.23,.13,66.27,1.88,30.43,7.92,50.23,26.89,59.39,56.89,.63,20.42,.83,40.84,.63,61.27-62.52-.21-125.04,0-187.55,.63-12.15,47.16-42.16,75.5-90.02,85.02-12.04,1.5-24.13,2.12-36.26,1.88-.21-6.68,0-13.35,.63-20.01,2.41-6.16,6.79-10.12,13.13-11.88,35.19,.2,60.4-15.43,75.65-46.89,1.22-2.8,1.85-5.72,1.88-8.75h-91.27c-.21-18.34,0-36.68,.63-55.02,8.73-36.45,31.45-58.12,68.14-65.02Zm6.25,31.26h18.76v56.27c-19.89-.41-39.69,.01-59.39,1.25-4.06-31.94,9.48-51.12,40.64-57.52Zm146.29,0c41.15-2.4,60.94,16.77,59.39,57.52-20.12-1.03-40.33-1.66-60.64-1.88,1.21-18.71,1.63-37.26,1.25-55.64Z"/>
  <path class="cls-6" d="M1451.65,185.12c53.65,50.11,105.97,101.79,156.92,155.04,30.77,46.1,33.7,94.03,8.75,143.79-5.64,8.78-11.89,17.12-18.76,25.01-16.67,17.08-33.76,33.76-51.26,50.01-47.79-46.54-95.09-93.43-141.91-140.66,30.7-30.69,61.53-61.53,92.53-92.53-14.52-14.52-29.11-29.11-43.76-43.76-.84-.83-1.66-.83-2.5,0-32.33,31.21-64.22,62.68-95.65,94.4-20.84,27.92-20.84,55.85,0,83.77,48.04,48.45,96.59,96.59,145.66,144.41-12.99,13.41-26.33,26.33-40.01,38.76-6.4,1.11-12.65,.69-18.76-1.25-47.63-46.37-94.93-93.26-141.91-140.66-39.55-56.1-39.12-111.95,1.25-167.55,49.68-49.88,99.48-99.48,149.42-148.79Zm95.03,188.8c-15.2,14.58-30.21,29.37-45.01,44.39,14.82,15.02,29.82,29.82,45.01,44.39,12.22-12.16,18.47-26.96,18.76-44.39-.58-17.38-6.83-32.17-18.76-44.39Z"/>
  <path class="cls-14" d="M295.08,247.64h33.76v32.51h-33.76v-32.51Z"/>
  <path class="cls-16" d="M451.38,247.64c8.03-.46,15.95,.16,23.76,1.88,4.99,2.49,8.11,6.45,9.38,11.88,.42,37.09,.83,74.19,1.25,111.28,6.81,18.52,19.94,25.39,39.39,20.63,14.03-6.54,20.9-17.58,20.63-33.13,3.19-5.46,7.99-8.59,14.38-9.38,5.82-.62,11.65-.83,17.5-.63-1.32,11.44,.55,22.28,5.63,32.51,5.9,7.12,13.4,11.29,22.51,12.5-2.05-36.49,12.74-63.37,44.39-80.65,9.26-3.78,18.85-6.28,28.76-7.5,45.01-.83,90.02-.83,135.04,0,5.86,1.69,10.23,5.23,13.13,10.63,.63,25.84,.83,51.68,.63,77.52h60.02c-.6-27.2,.03-54.3,1.88-81.27,3.28-3.41,7.24-5.71,11.88-6.88,86.86-7.06,124.37,32.74,112.53,119.41-138.37,.21-276.74,0-415.11-.63-14.32-2.37-26.83-8.41-37.51-18.13-29.23,23.71-59.23,24.75-90.02,3.13-9.48-8.73-15.94-19.36-19.38-31.88-.63-43.76-.83-87.52-.63-131.29Zm226.31,91.27h116.28v56.27c-51.27,.21-102.53,0-153.79-.63-2.92-29.32,9.59-47.87,37.51-55.64Zm242.57,1.25c41.62-5.49,62.04,12.85,61.27,55.02-20.43,.21-40.85,0-61.27-.63,1.66-18.25,1.66-36.38,0-54.39Z"/>
  <path class="cls-7" d="M308.84,306.41h113.78c.21,23.34,0,46.68-.63,70.02-6.62,24.13-21.84,40.18-45.64,48.14-125.42,1.86-250.87,2.48-376.35,1.88v-31.26H295.08c-.21-25.01,0-50.02,.63-75.02,2.11-6.9,6.48-11.48,13.13-13.75Zm20.01,32.51h60.02c.21,10.84,0,21.68-.63,32.51-3.94,13.52-12.9,21.24-26.88,23.13-10.83,.63-21.66,.83-32.51,.63v-56.27Z"/>
  <path class="cls-13" d="M0,467.7H1014.03v10H0v-10Z"/>
  <path class="cls-23" d="M202.56,510.21c9.67-.06,19.26,.77,28.76,2.5v12.5c-8.29-1.45-16.63-2.08-25.01-1.88-9.19,2.67-10.86,7.67-5,15,7.73,3.41,15.65,6.33,23.76,8.75,13.47,12.64,13.05,24.72-1.25,36.26-1.98,1.08-4.07,1.91-6.25,2.5-12.6,1.04-25.1,.41-37.51-1.88v-12.5c10.35,1.93,20.76,2.56,31.26,1.88,2.29-.34,4.16-1.38,5.63-3.13,.97-3.66,.76-7.21-.63-10.63-7.74-3.41-15.66-6.33-23.76-8.75-11.33-7.33-14.04-17.13-8.13-29.38,5.07-5.54,11.11-9.3,18.13-11.25Z"/>
  <path class="cls-19" d="M566.41,510.21c8.86-.2,17.62,.63,26.26,2.5v8.75c-8.74-.95-17.49-1.15-26.26-.63-5.38,1.21-7.88,4.54-7.5,10-.52,3.73,.73,6.64,3.75,8.75,7.92,2.92,15.84,5.84,23.76,8.75,13.31,11.8,13.31,23.47,0,35.01-13.28,4.04-26.61,4.04-40.01,0-2.08-3.99-1.25-7.11,2.5-9.38,11.41,3.46,22.66,3.25,33.76-.63,3.46-5.32,3.05-10.32-1.25-15-9.69-3.92-19.28-8.09-28.76-12.5-6.93-7.76-7.98-16.3-3.13-25.63,4.87-4.83,10.5-8.16,16.88-10Z"/>
  <path class="cls-20" d="M0,511.46c6.72-.41,13.39,0,20.01,1.25,6.68,16.28,13.34,32.54,20.01,48.76,7.15-16.04,13.82-32.3,20.01-48.76,7.04-1.24,14.12-1.66,21.26-1.25,.42,24.6,0,49.19-1.25,73.77h-12.5c-1.04-16.24-1.67-32.49-1.88-48.76-6.01,15.11-12.26,30.11-18.76,45.01-4.59,1.67-9.17,1.67-13.75,0-6.25-15.42-12.5-30.84-18.76-46.26-.63,16.67-.83,33.34-.63,50.01H0v-73.77Z"/>
  <path class="cls-9" d="M121.29,511.46c7.55-.41,15.05,0,22.51,1.25,7.59,22.57,15.3,45.07,23.13,67.52,.97,2.38,.55,4.46-1.25,6.25-4.06-1.02-8.02-1.44-11.88-1.25-3.22-5.5-5.73-11.33-7.5-17.5-9.17-1.67-18.34-1.67-27.51,0-2.35,6.45-5.06,12.7-8.13,18.76-4.65-1.01-9.24-1.43-13.75-1.25,7.92-24.54,16.04-49.13,24.38-73.77Zm11.25,13.75c2.68,9.49,6.01,18.86,10,28.13-6.71,1.04-13.38,.83-20.01-.63,3.6-9.12,6.93-18.29,10-27.51Z"/>
  <path class="cls-17" d="M271.33,511.46c7.41-.39,14.7,.03,21.88,1.25,8.13,23.76,16.25,47.51,24.38,71.27-5.36,1.24-10.77,1.66-16.25,1.25-1.41-5.89-3.07-11.73-5-17.5-9.55-1.25-19.14-1.66-28.76-1.25-1.21,6.35-3.3,12.39-6.25,18.13-4.49,.26-8.86,.88-13.13,1.88-1.09-.76-1.71-1.8-1.88-3.13,8.43-23.94,16.77-47.91,25.01-71.89Zm10,12.5c3.32,9.91,6.65,19.91,10,30.01-6.31,.41-12.56,0-18.76-1.25,3.5-9.44,6.42-19.02,8.75-28.76Z"/>
  <path class="cls-1" d="M333.85,511.46h50.01v12.5h-35.01v20.01h32.51c.36,4.1-.06,8.06-1.25,11.88-10.41,.63-20.83,.83-31.26,.63v28.76h-15v-73.77Z"/>
  <path class="cls-8" d="M421.37,511.46h11.25v73.77c-3.81,.26-7.35,.26-10.63,0-.63-24.59-.83-49.18-.63-73.77Z"/>
  <path class="cls-15" d="M460.13,511.46c4.38-.63,8.34,.2,11.88,2.5,12.92,17.92,25.84,35.84,38.76,53.76,.63-18.75,.83-37.51,.63-56.27h10v73.77c-4.38,.63-8.34-.2-11.88-2.5-12.2-17.31-24.7-34.4-37.51-51.26-.63,17.92-.83,35.84-.63,53.76h-11.25v-73.77Z"/>
  <path class="cls-2" d="M613.92,511.46h56.27v10h-22.51v63.77h-11.25v-63.77h-22.51v-10Z"/>
  <path class="cls-3" d="M692.69,511.46h11.25v73.77c-3.56,.35-6.89,.35-10,0-1.25-24.58-1.67-49.17-1.25-73.77Z"/>
  <path class="cls-4" d="M726.45,511.46h56.27v10h-22.51v63.77c-3.81,.26-7.35,.26-10.63,0-.63-21.25-.83-42.51-.63-63.77h-22.51v-10Z"/>
  <path class="cls-5" d="M805.22,511.46h11.25c-.21,17.51,0,35.01,.63,52.51,2.12,9.52,8.16,13.69,18.13,12.5,8.13,.63,13.75-2.7,16.88-10,1.79-18.26,2.42-36.6,1.88-55.02h11.25c.21,16.68,0,33.35-.63,50.01-2.22,17.4-12.22,25.73-30.01,25.01-12.65,1.18-21.81-3.82-27.51-15-1.82-19.92-2.44-39.92-1.88-60.02Z"/>
  <path class="cls-10" d="M887.75,511.46h56.27v10h-22.51v63.77c-3.81,.26-7.35,.26-10.63,0-.63-21.25-.83-42.51-.63-63.77h-22.51v-10Z"/>
  <path class="cls-18" d="M966.52,511.46h47.51c.34,3.27-.08,6.4-1.25,9.38-12.08,.63-24.17,.83-36.26,.63v22.51h35.01v8.75h-35.01v23.76h37.51v8.75c-15.89,.05-31.52,.05-46.89,0-.63-24.59-.83-49.18-.63-73.77Z"/>
  <path class="cls-11" d="M0,621.49H1014.03v8.75H0v-8.75Z"/>
</svg>