<svg xmlns="http://www.w3.org/2000/svg" width="24" height="24" class="inline ml-2" fill="none" viewBox="0 0 24 24"><path stroke="#282828" stroke-linecap="round" stroke-linejoin="round" stroke-width="1.5" d="M21.004 8H2.996m5.002 5H2.996m5.002 5.004H2.996M21.004 2.996H2.996"></path><path stroke="#282828" stroke-linecap="round" stroke-linejoin="round" stroke-width="1.5" d="M15.402 17.52v2.593a.888.888 0 0 0 1.287.8l1.424-.712a.888.888 0 0 0 .492-.8V17.52l2.054-1.585a.89.89 0 0 0 .346-.7v-1.346a.89.89 0 0 0-.89-.889H13.89a.89.89 0 0 0-.889.89v1.34a.89.89 0 0 0 .346.701l2.055 1.589Z" clip-rule="evenodd"></path></svg>