<svg xmlns="http://www.w3.org/2000/svg" class="inlin" width="24" height="24" fill="none" viewBox="0 0 24 24"><path fill="#F8F8F6" fill-rule="evenodd" d="M6.657 2c1.117.016 1.913.853 2.92 1.912.25.26.518.546.82.846 1.458 1.46 1.043 2.65.708 3.607-.364 1.043-.679 1.942 1.207 3.829 1.886 1.885 2.785 1.57 3.827 1.204.957-.335 2.145-.752 3.607.707.297.297.577.563.837.81 1.063 1.013 1.903 1.812 1.917 2.931.011.954-.569 1.928-2 3.36l-.635-.43.537.523c-.317.326-1.16 1.192-2.81 1.201h-.03c-2.493 0-5.742-1.983-9.658-5.898C3.972 12.67 1.985 9.412 2 6.915c.01-1.65.874-2.495 1.2-2.812l.027-.03.067-.068C4.73 2.57 5.715 1.98 6.657 2Zm-.019 1.5H6.63c-.449 0-1.13.45-2.082 1.374l-.191.188h.002a.61.61 0 0 1-.044.047l-.067.067c-.242.235-.743.724-.748 1.747-.008 1.43.933 4.088 5.464 8.617 4.51 4.509 7.162 5.46 8.597 5.46h.021c1.023-.006 1.511-.506 1.746-.747a2.12 2.12 0 0 1 .17-.162c.997-1.003 1.507-1.748 1.502-2.227-.006-.488-.613-1.064-1.452-1.863a43.95 43.95 0 0 1-.863-.836c-.794-.79-1.185-.655-2.05-.351-1.195.418-2.832.992-5.383-1.56C8.7 10.703 9.272 9.066 9.69 7.87c.302-.864.44-1.257-.353-2.051-.31-.31-.589-.604-.846-.874C7.696 4.11 7.123 3.508 6.638 3.5Zm8.608 2.058A5.153 5.153 0 0 1 19.34 9.65a.75.75 0 1 1-1.472.288A3.66 3.66 0 0 0 14.96 7.03a.75.75 0 1 1 .286-1.472Zm-.06-3.552A8.671 8.671 0 0 1 22.888 9.7a.75.75 0 0 1-1.49.168 7.181 7.181 0 0 0-6.378-6.37.75.75 0 0 1-.662-.829.743.743 0 0 1 .828-.662Z" clip-rule="evenodd"></path></svg>