<svg xmlns="http://www.w3.org/2000/svg" width="24" height="24" fill="none" viewBox="0 0 24 24"><path stroke="#fff" stroke-linecap="round" stroke-linejoin="round" stroke-width="1.5" d="M6.433 1h10.886a5.431 5.431 0 0 1 5.431 5.433v10.886a5.431 5.431 0 0 1-5.433 5.431H6.433c-3 0-5.433-2.431-5.433-5.433V6.433C1 3.433 3.431 1 6.433 1v0Z" clip-rule="evenodd"></path><path stroke="#fff" stroke-linecap="round" stroke-linejoin="round" stroke-width="1.5" d="M17.854 5.487a.408.408 0 1 0 .002.814.408.408 0 0 0-.002-.814"></path><path stroke="#fff" stroke-linecap="round" stroke-linejoin="round" stroke-width="1.5" d="M14.951 8.8A4.35 4.35 0 1 1 8.8 14.95a4.35 4.35 0 0 1 6.15-6.15Z" clip-rule="evenodd"></path></svg>