<svg xmlns="http://www.w3.org/2000/svg" class="inline" width="80" height="50" fill="none" viewBox="0 0 80 50"><path fill="#fff" fill-rule="evenodd" d="M77.534 11.91h-4.921V7.15h1.23c2.03 0 3.69 1.606 3.69 3.57v1.19Zm-3.691 11.903c3.385 0 6.151 2.676 6.151 5.95v3.569H47.996a4.989 4.989 0 0 1-3.69-1.611 4.97 4.97 0 0 1-3.69 1.61c-2.72 0-4.922-2.129-4.922-4.759v-9.524h1.23c.677 0 1.23.535 1.23 1.19v8.334c0 1.315 1.101 2.38 2.461 2.38 1.36 0 2.46-1.065 2.46-2.38 0-.654.554-1.19 1.23-1.19h1.231v1.19c0 1.315 1.1 2.38 2.46 2.38v-1.19c0-3.273 2.767-5.949 6.152-5.949h9.847c.677 0 1.23.535 1.23 1.19v5.949h4.921v-5.949c0-.655.554-1.19 1.23-1.19h2.467Zm-50.457-4.759h2.46v2.38h-2.46v-2.38Zm7.381 4.76h-6.151c-.677 0-1.23.534-1.23 1.189v5.949H0v2.38h28.307c2.708 0 4.903-2.112 4.92-4.726v-4.798h-2.46v.005Zm-4.92 2.379h4.92v2.385c-.005 1.315-1.106 2.374-2.46 2.374h-2.46v-4.76Zm24.61 4.759h12.308v-4.76h-8.617c-2.031 0-3.691 1.606-3.691 3.57v1.19Zm27.077-1.19c0-1.964-1.66-3.57-3.691-3.57h-1.23v4.76h4.92v-1.19Zm-16-27.377a8.97 8.97 0 0 0-2.46.348v.626a8.162 8.162 0 0 1 2.46-.376h3.697v-.598h-2.913a1.143 1.143 0 0 1-.165-.597c0-.655.553-1.19 1.23-1.19h1.23V0h-1.23c-1.018 0-1.848.797-1.848 1.788 0 .21.035.41.106.597h-.106Zm-33.227 3.57v-1.19h1.23c.677 0 1.23.535 1.23 1.19v3.57c0 2.63-2.201 4.758-4.92 4.758a4.99 4.99 0 0 1-3.691-1.61 4.97 4.97 0 0 1-3.69 1.61 4.989 4.989 0 0 1-3.692-1.61c-.9.99-2.219 1.61-3.69 1.61-2.72 0-4.921-2.129-4.921-4.759v-2.38c-2.03 0-3.69 1.606-3.69 3.57v3.57H1.241c-.677 0-1.23-.536-1.23-1.19v-2.38c0-3.273 2.766-5.95 6.15-5.95h2.461v4.76c0 1.315 1.101 2.38 2.46 2.38 1.36 0 2.461-1.065 2.461-2.38v-4.76h1.23c.677 0 1.23.536 1.23 1.19v3.57c0 1.315 1.101 2.38 2.461 2.38 1.36 0 2.46-1.065 2.46-2.38v-4.76h1.23c.678 0 1.231.536 1.231 1.19v3.57c0 1.315 1.1 2.38 2.46 2.38 1.36 0 2.461-1.065 2.461-2.38v-3.57Zm24.61 3.57c0 2.63-2.201 4.758-4.92 4.758a4.989 4.989 0 0 1-3.691-1.61 4.97 4.97 0 0 1-3.69 1.61 4.99 4.99 0 0 1-3.692-1.61c-.9.99-2.219 1.61-3.69 1.61h-2.46v-2.38h2.46c1.36 0 2.46-1.064 2.46-2.379v-4.76h1.23c.677 0 1.23.536 1.23 1.19v3.57c0 1.315 1.101 2.38 2.461 2.38 1.36 0 2.46-1.065 2.46-2.38v-4.76h1.23c.678 0 1.231.536 1.231 1.19v3.57c0 1.315 1.1 2.38 2.46 2.38 1.36 0 2.46-1.065 2.46-2.38v-4.76h1.231c.677 0 1.23.536 1.23 1.19v3.57Zm9.848-4.76h1.23c.677 0 1.23.535 1.23 1.19v5.949h4.921v-7.14h3.691c3.385 0 6.151 2.677 6.151 5.95v3.575H65.131c-.594 4.036-4.185 7.139-8.529 7.139h-1.23v-1.19c0-.655.553-1.19 1.23-1.19 2.979 0 5.463-2.043 6.028-4.759h-7.264v-3.57c0-3.273 2.767-5.948 6.151-5.948h1.23l.018-.006Zm0 7.139v-4.76h-1.23c-2.03 0-3.69 1.606-3.69 3.57v1.19h4.92Z" clip-rule="evenodd"></path><path fill="#DBDCDD" d="M79.994 36.906H0v.598h79.994v-.598Zm0 12.496H0V50h79.994v-.598Z"></path><path fill="#fff" d="M0 40.481h1.448l1.295 3.262.36 1.099h.064l.359-1.099 1.295-3.262h1.448v5.801h-.96v-4.56h-.053l-.488 1.372-1.177 2.938h-.907l-1.177-2.938-.495-1.372H.96v4.56H.006v-5.8H0Zm7.735 5.739 1.913-5.739h1.565l1.913 5.739v.062h-1.018l-.53-1.56H9.265l-.518 1.56H7.729v-.062h.006Zm3.608-2.312-.56-1.673-.311-1.014h-.089l-.312 1.014-.559 1.673h1.837-.006Zm4.897 2.465a6.51 6.51 0 0 1-.936-.074 11.648 11.648 0 0 1-.989-.188l.012-.848c.3.086.612.148.936.2.318.05.612.073.871.073.783 0 1.177-.267 1.177-.797 0-.278-.105-.483-.317-.614-.212-.131-.5-.245-.872-.348a4.885 4.885 0 0 1-.759-.244 1.934 1.934 0 0 1-.541-.348 1.312 1.312 0 0 1-.324-.484 1.937 1.937 0 0 1-.106-.677c0-.501.188-.905.57-1.201.383-.302.896-.45 1.549-.45.23 0 .47.017.73.046.253.034.553.085.889.159l-.036.825a8.237 8.237 0 0 0-.783-.153 4.901 4.901 0 0 0-.706-.057c-.365 0-.647.074-.842.216a.704.704 0 0 0-.294.604c0 .25.094.444.289.586.188.137.5.268.924.376.265.068.506.148.712.239a1.9 1.9 0 0 1 .536.336c.147.13.259.29.34.478.077.182.119.404.119.654 0 .541-.183.963-.554 1.253-.365.29-.9.438-1.6.438h.005Zm3.297-.16 1.913-5.738h1.565l1.913 5.739v.063H23.91l-.53-1.56h-2.313l-.518 1.56H19.53v-.063h.006Zm3.608-2.31-.56-1.674-.311-1.013h-.089l-.312 1.013-.559 1.674h1.837-.006Zm3.255-3.428h3.814v.826H27.46v1.736h2.496v.826H27.46v2.413H26.4v-5.8Zm6.904 0H34v5.801h-.695v-5.8Zm3.12 0h.606l2.908 4.054.43.677h.053V40.47h.624v5.8h-.618l-2.908-4.047-.43-.677h-.041v4.725h-.624V40.47v.005Zm8.523 5.898c-.259 0-.553-.023-.888-.074a9.829 9.829 0 0 1-.907-.176l.024-.587a5 5 0 0 0 .87.194c.319.046.607.068.848.068.43 0 .766-.085 1.001-.256.235-.17.353-.415.353-.734a.885.885 0 0 0-.094-.427.917.917 0 0 0-.27-.313 1.768 1.768 0 0 0-.43-.24 4.747 4.747 0 0 0-.554-.187c-.57-.165-.989-.37-1.26-.615-.27-.245-.406-.598-.406-1.053 0-.24.048-.456.142-.655.094-.2.23-.37.4-.507.17-.136.383-.244.624-.324.241-.074.512-.114.818-.114.218 0 .442.017.683.046.235.028.5.08.789.142l-.024.563a8.717 8.717 0 0 0-.753-.136 4.837 4.837 0 0 0-.654-.051c-.412 0-.73.09-.96.279a.905.905 0 0 0-.346.745c0 .137.023.262.07.37a.83.83 0 0 0 .23.296 1.5 1.5 0 0 0 .406.24c.165.068.365.136.606.21.26.074.495.16.7.256.207.097.383.205.53.342.142.13.254.285.336.467.076.176.118.392.118.643 0 .507-.177.905-.524 1.178-.347.28-.842.416-1.478.416v-.006Zm5.404-5.322h-1.784v-.576h4.268v.575h-1.784v5.227h-.7V41.05Zm4.432-.576h.695v5.801h-.695v-5.8Zm4.42.575H57.42v-.575h4.268v.575h-1.784v5.227h-.7V41.05Zm6.7 5.312c-.807 0-1.39-.194-1.743-.575-.353-.381-.53-.99-.53-1.828v-3.478h.695v3.462c0 .654.13 1.127.382 1.411.254.285.654.427 1.195.427.542 0 .942-.142 1.201-.427.26-.284.389-.757.389-1.411V40.48h.694v3.478c0 .837-.176 1.447-.535 1.828-.36.381-.936.575-1.749.575Zm6.01-5.312h-1.784v-.575h4.267v.575h-1.783v5.227h-.7V41.05Zm4.432-.575h3.59v.564H77.04v2.015h2.673v.564H77.04v2.09H80v.563h-3.655V40.47v.005Z"></path></svg>