<svg xmlns="http://www.w3.org/2000/svg" width="50" height="50" fill="none" viewBox="0 0 50 50"><g clip-path="url(#a)"><path fill="#fff" fill-rule="evenodd" d="M21.24 32.435 25 28.831l2.328-2.233 1.431-1.372L25 21.621l-7.52 7.21a4.965 4.965 0 0 0 0 7.209l11.277 10.81-2.818 2.702a1.378 1.378 0 0 1-1.88 0l-10.339-9.91a9.926 9.926 0 0 1 0-14.416l11.277-10.81 3.76 3.604 3.76 3.605 3.76 3.605a9.926 9.926 0 0 1 0 14.415l-3.76 3.604L21.24 32.44v-.004ZM9.02 49.555l-2.818-2.701c-8.27-7.929-8.27-20.901 0-28.83L21.239 3.609 25 .004l18.797 18.02c8.27 7.929 8.27 20.901 0 28.83l-2.818 2.702a1.378 1.378 0 0 1-1.88 0l-2.818-2.702 3.76-3.605c6.203-5.946 6.203-15.678 0-21.624L25.003 7.21 9.967 21.625c-6.203 5.947-6.203 15.678 0 21.624l3.76 3.605-2.819 2.702a1.378 1.378 0 0 1-1.88 0h-.007Zm19.739-17.12 3.76 3.605a4.965 4.965 0 0 0 0-7.21l-1.432 1.373-2.329 2.232Z" clip-rule="evenodd"></path></g><defs><clipPath id="a"><path fill="#fff" d="M0 0h50v50H0z"></path></clipPath></defs></svg>