<svg xmlns="http://www.w3.org/2000/svg" width="110" height="50" fill="none" viewBox="0 0 110 50"><g clip-path="url(#a)"><path fill="#282828" fill-rule="evenodd" d="M81.24 32.435 85 28.831l2.33-2.233 1.43-1.372L85 21.621l-7.52 7.21a4.965 4.965 0 0 0 0 7.209l11.277 10.81-2.818 2.702a1.378 1.378 0 0 1-1.88 0l-10.339-9.91a9.926 9.926 0 0 1 0-14.416l11.277-10.81 3.76 3.604 3.76 3.605 3.76 3.605a9.926 9.926 0 0 1 0 14.415l-3.76 3.604L81.24 32.44v-.004Zm-12.218 17.12-2.818-2.701c-8.27-7.929-8.27-20.901 0-28.83L81.24 3.609 85 .004l18.797 18.02c8.271 7.929 8.271 20.901 0 28.83l-2.818 2.702a1.378 1.378 0 0 1-1.88 0l-2.818-2.702 3.76-3.605c6.203-5.946 6.203-15.678 0-21.624L85.004 7.21 69.968 21.625c-6.203 5.947-6.203 15.678 0 21.624l3.76 3.605-2.819 2.702a1.378 1.378 0 0 1-1.88 0h-.007Zm19.738-17.12 3.76 3.605a4.965 4.965 0 0 0 0-7.21l-1.43 1.373-2.33 2.232Z" clip-rule="evenodd"></path></g><path fill="#282828" fill-rule="evenodd" d="M48.459 16.696h-3.076v-3.075h.769a2.313 2.313 0 0 1 2.306 2.306v.77Zm-2.307 7.693a3.855 3.855 0 0 1 3.844 3.844v2.307H29.998c-.92 0-1.744-.405-2.307-1.041a3.074 3.074 0 0 1-5.382-2.034V21.31h.769a.77.77 0 0 1 .769.768v5.386a1.537 1.537 0 1 0 3.075 0 .77.77 0 0 1 .77-.768h.768v.768c0 .85.688 1.538 1.538 1.538v-.769a3.855 3.855 0 0 1 3.844-3.844h6.156a.77.77 0 0 1 .768.769v3.844h3.076v-3.844a.77.77 0 0 1 .768-.77h1.542Zm-31.536-3.076h1.538v1.538h-1.538v-1.538Zm4.614 3.076h-3.845a.77.77 0 0 0-.769.769v3.844H0v1.538h17.692a3.074 3.074 0 0 0 3.075-3.053v-3.102H19.23v.004Zm-3.076 1.538h3.076v1.541a1.539 1.539 0 0 1-1.538 1.534h-1.538v-3.075Zm15.382 3.075h7.692v-3.075h-5.386a2.313 2.313 0 0 0-2.306 2.306v.77Zm16.922-.769a2.313 2.313 0 0 0-2.306-2.306h-.769v3.075h3.075v-.769ZM38.46 10.541c-.533 0-1.052.081-1.538.225v.405a4.928 4.928 0 0 1 1.538-.243h2.311v-.387H38.95a.77.77 0 0 1 .666-1.155h.768V9h-.769a1.155 1.155 0 0 0-1.088 1.541h-.067Zm-20.767 2.307v-.769h.769c.423 0 .769.346.769.77v2.306a3.074 3.074 0 0 1-5.383 2.034 3.06 3.06 0 0 1-2.306 1.041c-.92 0-1.744-.404-2.307-1.04a3.074 3.074 0 0 1-5.382-2.034v-1.539a2.313 2.313 0 0 0-2.307 2.307v2.306h-.77a.77.77 0 0 1-.769-.768v-1.538a3.855 3.855 0 0 1 3.845-3.845H5.39v3.076a1.537 1.537 0 1 0 3.075 0v-3.076h.769a.77.77 0 0 1 .769.77v2.306a1.537 1.537 0 1 0 3.075 0v-3.076h.77c.422 0 .768.346.768.77v2.306a1.537 1.537 0 1 0 3.076 0v-2.307Zm15.381 2.307a3.074 3.074 0 0 1-5.382 2.034 3.06 3.06 0 0 1-2.307 1.041c-.92 0-1.743-.404-2.306-1.04a3.06 3.06 0 0 1-2.307 1.04h-1.538v-1.537h1.538c.85 0 1.538-.688 1.538-1.538v-3.076h.769c.423 0 .769.346.769.77v2.306a1.537 1.537 0 1 0 3.075 0v-3.076h.77c.422 0 .768.346.768.77v2.306a1.537 1.537 0 1 0 3.076 0v-3.076h.768c.423 0 .77.346.77.77v2.306Zm6.155-3.076h.77a.77.77 0 0 1 .768.77v3.844h3.076v-4.614h2.307a3.855 3.855 0 0 1 3.844 3.845v2.31h-9.286a5.383 5.383 0 0 1-5.33 4.613h-.77v-.769a.77.77 0 0 1 .77-.768 3.842 3.842 0 0 0 3.767-3.076h-4.54v-2.307a3.855 3.855 0 0 1 3.844-3.844h.77l.01-.004Zm0 4.614v-3.076h-.769a2.313 2.313 0 0 0-2.306 2.307v.769h3.075Z" clip-rule="evenodd"></path><path fill="#545656" d="M49.996 32.85H0v.386h49.996v-.386Zm0 8.076H0v.386h49.996v-.386Z"></path><path fill="#282828" d="M0 35.16h.905l.81 2.108.224.71h.04l.225-.71.809-2.108h.905v3.748h-.6v-2.946h-.033l-.305.886-.736 1.899h-.566l-.736-1.899-.31-.886H.6v2.946H.004V35.16H0Zm4.834 3.708L6.03 35.16h.978l1.196 3.708v.04h-.636L7.236 37.9H5.791l-.324 1.008H4.83v-.04h.004Zm2.255-1.494-.35-1.081-.194-.655H6.49l-.195.655-.35 1.081h1.148-.004Zm3.061 1.593c-.173 0-.364-.014-.585-.047a7.08 7.08 0 0 1-.618-.122l.007-.548c.188.055.383.096.585.129.2.033.383.048.545.048.49 0 .736-.173.736-.515 0-.18-.067-.313-.199-.398a2.096 2.096 0 0 0-.545-.224c-.18-.044-.338-.1-.474-.158a1.204 1.204 0 0 1-.339-.225.85.85 0 0 1-.202-.313 1.29 1.29 0 0 1-.066-.437c0-.324.118-.585.357-.776.239-.196.559-.291.967-.291.144 0 .295.01.456.03.159.021.346.055.556.102l-.022.534a5.04 5.04 0 0 0-.49-.1 2.955 2.955 0 0 0-.44-.036c-.229 0-.405.047-.527.14a.46.46 0 0 0-.184.39c0 .161.059.286.18.378.118.089.313.173.578.243.166.044.316.096.445.155.129.058.243.128.335.217a.877.877 0 0 1 .213.309c.048.117.074.26.074.423 0 .35-.114.621-.346.81-.228.187-.563.282-1 .282h.003Zm2.06-.103 1.196-3.708h.978l1.196 3.708v.04h-.636l-.331-1.007h-1.446l-.324 1.008h-.636v-.04h.003Zm2.255-1.493-.349-1.082-.195-.655h-.055l-.195.655-.35 1.082h1.148-.003Zm2.035-2.215h2.384v.534h-1.722v1.122h1.56v.533h-1.56v1.56H16.5v-3.749Zm4.315 0h.434v3.749h-.434v-3.749Zm1.95 0h.379l1.817 2.62.269.437h.033v-3.06h.39V38.9h-.386l-1.818-2.616-.268-.437h-.026V38.9h-.39v-3.749.004Zm5.327 3.811c-.162 0-.346-.014-.555-.047a6.125 6.125 0 0 1-.567-.114l.015-.38c.162.056.342.096.544.126.199.03.38.044.53.044.269 0 .478-.055.625-.166a.558.558 0 0 0 .221-.474.587.587 0 0 0-.059-.276.586.586 0 0 0-.169-.203 1.097 1.097 0 0 0-.268-.154 2.904 2.904 0 0 0-.346-.121c-.357-.107-.618-.24-.788-.398-.169-.158-.253-.386-.253-.68 0-.155.029-.295.088-.424a.916.916 0 0 1 .25-.327c.107-.088.24-.158.39-.21.15-.047.32-.073.511-.073.137 0 .276.01.427.03.147.018.313.05.493.091l-.015.364a5.263 5.263 0 0 0-.47-.088 2.927 2.927 0 0 0-.409-.033c-.257 0-.456.059-.6.18a.593.593 0 0 0-.217.482.536.536 0 0 0 .188.43c.066.06.15.111.254.155.103.044.228.088.379.136.162.048.309.103.438.166.128.062.239.132.33.22a.925.925 0 0 1 .21.302c.048.114.074.254.074.416 0 .327-.11.585-.328.761-.216.18-.526.27-.923.27v-.005Zm3.377-3.44h-1.114v-.37h2.667v.37h-1.115v3.378h-.438v-3.377Zm2.77-.37h.435v3.748h-.434v-3.749Zm2.763.37h-1.114v-.37h2.667v.37H37.44v3.378h-.438v-3.377Zm4.187 3.433c-.504 0-.868-.125-1.089-.371-.22-.247-.331-.64-.331-1.181V35.16h.434v2.237c0 .423.081.728.24.912.157.184.408.276.746.276.339 0 .589-.092.75-.276.162-.184.243-.49.243-.912V35.16h.434v2.248c0 .54-.11.934-.334 1.18-.225.247-.585.372-1.093.372Zm3.756-3.432h-1.114v-.372h2.667v.372h-1.115v3.377h-.438v-3.377Zm2.77-.372h2.244v.364h-1.81v1.303h1.67v.364h-1.67v1.35H50v.364h-2.285v-3.749.004Z"></path><defs><clipPath id="a"><path fill="#fff" d="M0 0h50v50H0z" transform="translate(60)"></path></clipPath></defs></svg>