<svg width="22" height="18" viewBox="0 0 24 20" fill="none" xmlns="http://www.w3.org/2000/svg" class="ml-2"><path d="M21.3463 5.26455C21.304 5.29523 21.2804 5.34541 21.2832 5.39757C21.2923 5.57215 21.2923 5.74692 21.2923 5.92307C21.2923 12.1504 16.4775 19.3323 7.67333 19.3333C7.6723 19.3333 7.67143 19.3325 7.67143 19.3314C7.67143 19.3304 7.6706 19.3296 7.66957 19.3296C5.29111 19.3327 2.9579 18.7193 0.901841 17.5565C0.762771 17.4779 0.833749 17.2641 0.993314 17.2721C1.15297 17.2802 1.31285 17.2844 1.47291 17.2848C3.48544 17.2865 5.44426 16.6659 7.07551 15.5164C7.19129 15.4348 7.13385 15.2518 6.99301 15.2368C5.20915 15.0473 3.67464 13.888 3.03141 12.2295C2.99014 12.1231 3.08348 12.0157 3.19658 12.0311C3.62238 12.089 4.05347 12.0899 4.47818 12.0343C4.63549 12.0137 4.63785 11.794 4.48766 11.7429C2.58275 11.0944 1.26721 9.31951 1.26721 7.28939C1.26721 7.2625 1.29603 7.24542 1.31976 7.25805C1.81644 7.5224 2.35602 7.69714 2.91298 7.77504C3.0627 7.79598 3.13091 7.60144 3.01446 7.50504C1.30844 6.09268 0.808718 3.68223 1.85368 1.71319C1.90245 1.62129 2.02833 1.61125 2.09583 1.69042C4.48027 4.4872 7.92311 6.20333 11.6252 6.43913C11.7248 6.44547 11.8015 6.35338 11.7827 6.25535C11.4814 4.67829 12.0149 3.05243 13.2093 1.94732C15.1172 0.18158 18.1064 0.252655 19.9249 2.09273C19.9608 2.12905 20.0126 2.14591 20.0626 2.13575C20.9763 1.95037 21.8566 1.63463 22.6772 1.19957C22.7991 1.13493 22.9375 1.25017 22.8836 1.37721C22.5809 2.09164 22.105 2.72093 21.4998 3.21054C21.3738 3.31251 21.4591 3.53713 21.6183 3.50669C22.1526 3.40455 22.6772 3.25749 23.1861 3.06705C23.327 3.01435 23.4552 3.17379 23.3642 3.29348C22.7935 4.04417 22.1134 4.70799 21.3463 5.26455Z" stroke="#282828" stroke-width="1.5" stroke-linecap="round" stroke-linejoin="round"></path></svg>